HIERARCHY
ROOT Hips
{
	OFFSET 0.000000 0.000000 0.000000 
	CHANNELS 6 Xposition Yposition Zposition Zrotation Yrotation Xrotation
	JOINT LeftUpLeg
	{
		OFFSET 1.363060 -1.794630 0.839290 
		CHANNELS 3 Zrotation Yrotation Xrotation
		JOINT LeftLeg
		{
			OFFSET 2.448110 -6.726130 0.000000 
			CHANNELS 3 Zrotation Yrotation Xrotation
			JOINT LeftFoot
			{
				OFFSET 2.562200 -7.039590 0.000000 
				CHANNELS 3 Zrotation Yrotation Xrotation
				JOINT LeftToeBase
				{
					OFFSET 0.157640 -0.433110 2.322550 
					CHANNELS 3 Zrotation Yrotation Xrotation
					End Site
					{
						OFFSET 0.000000 0.000000 0.000000 
					}
				}
			}
		}
	}
	JOINT RightUpLeg
	{
		OFFSET -1.305520 -1.794630 0.839290 
		CHANNELS 3 Zrotation Yrotation Xrotation
		JOINT RightLeg
		{
			OFFSET -2.542530 -6.985550 0.000000 
			CHANNELS 3 Zrotation Yrotation Xrotation
			JOINT RightFoot
			{
				OFFSET -2.568260 -7.056230 0.000000 
				CHANNELS 3 Zrotation Yrotation Xrotation
				JOINT RightToeBase
				{
					OFFSET -0.164730 -0.452590 2.363150 
					CHANNELS 3 Zrotation Yrotation Xrotation
					End Site
					{
						OFFSET 0.000000 0.000000 0.000000 
					}
				}
			}
		}
	}
	JOINT Spine
	{
		OFFSET 0.028270 2.035590 -0.193380 
		CHANNELS 3 Zrotation Yrotation Xrotation
		JOINT Spine1
		{
			OFFSET 0.056720 2.048850 -0.042750 
			CHANNELS 3 Zrotation Yrotation Xrotation
			JOINT Neck1
			{
				OFFSET -0.054170 1.746240 0.172020 
				CHANNELS 3 Zrotation Yrotation Xrotation
				JOINT Head
				{
					OFFSET 0.104070 1.761360 -0.123970 
					CHANNELS 3 Zrotation Yrotation Xrotation
					End Site
					{
						OFFSET 0.000000 0.000000 0.000000 
					}
				}
			}
			JOINT LeftArm
			{
				OFFSET 3.362410 1.200890 -0.311210 
				CHANNELS 3 Zrotation Yrotation Xrotation
				JOINT LeftForeArm
				{
					OFFSET 4.983000 -0.000000 -0.000000 
					CHANNELS 3 Zrotation Yrotation Xrotation
					JOINT LeftHand
					{
						OFFSET 3.483560 -0.000000 -0.000000 
						CHANNELS 3 Zrotation Yrotation Xrotation
						JOINT LeftHandIndex1
						{
							OFFSET 0.715260 -0.000000 -0.000000 
							CHANNELS 3 Zrotation Yrotation Xrotation
							End Site
							{
								OFFSET 0.000000 0.000000 0.000000 
							}
						}
					}
				}
			}
			JOINT RightArm
			{
				OFFSET -3.136600 1.374050 -0.404650 
				CHANNELS 3 Zrotation Yrotation Xrotation
				JOINT RightForeArm
				{
					OFFSET -5.241900 -0.000000 -0.000000 
					CHANNELS 3 Zrotation Yrotation Xrotation
					JOINT RightHand
					{
						OFFSET -3.444170 -0.000000 -0.000000 
						CHANNELS 3 Zrotation Yrotation Xrotation
						JOINT RightHandIndex1
						{
							OFFSET -0.622530 -0.000000 -0.000000 
							CHANNELS 3 Zrotation Yrotation Xrotation
							End Site
							{
								OFFSET 0.000000 0.000000 0.000000 
							}
						}
					}
				}
			}
		}
	}
}
MOTION
Frames: 12
Frame Time: 0.041667
-0.053072 17.817092 -31.499987 -1.170311 1.171741 4.154243 -3.053144 -15.313008 -4.359239 -0.693841 6.877374 17.728704 2.282848 -5.468901 4.661873 0.189700 -2.804700 -7.735600 7.672748 22.275534 -2.454185 -0.376930 -8.499753 22.415647 -1.755828 4.636372 -1.036914 -0.099700 2.036200 -5.605700 2.578645 -0.997240 -3.551108 2.917717 -0.542084 -3.599806 -0.870235 -4.768277 23.064022 -4.659900 -1.382800 14.464300 -88.655289 9.288103 25.066482 18.985253 -28.881530 -4.488385 0.062805 0.332053 -3.420889 -7.125000 0.000000 0.000000 86.894374 -2.271701 12.637599 -13.193969 22.123189 -2.607985 0.048796 -0.492599 0.814175 7.125000 0.000000 0.000000 
-0.051076 17.816394 -31.497194 -1.181244 1.213073 4.138268 -3.053358 -15.379463 -4.319527 -0.695000 6.876937 17.726376 2.279390 -5.455295 4.677378 0.189500 -2.803500 -7.732300 7.681897 22.198136 -2.445667 -0.374012 -8.496218 22.401728 -1.765942 4.681341 -1.026933 -0.096400 2.001900 -5.510900 2.577482 -1.003814 -3.563139 2.908424 -0.546091 -3.613322 -0.841304 -4.862539 23.083971 -4.650700 -1.422600 14.464700 -88.628599 9.320827 25.130521 18.986858 -28.882374 -4.488496 0.060186 0.335625 -3.389296 -7.125000 0.000000 0.000000 86.895604 -2.339905 12.531796 -13.207954 22.142017 -2.614372 0.049915 -0.493993 0.856791 7.125000 0.000000 0.000000 
-0.050677 17.816095 -31.493603 -1.168108 1.236979 4.102361 -3.084226 -15.450387 -4.268237 -0.688329 6.900077 17.783757 2.264408 -5.398975 4.591879 0.194500 -2.840100 -7.834000 7.695485 22.177164 -2.355961 -0.361027 -8.470778 22.318351 -1.754032 4.625159 -1.019836 -0.102700 2.066600 -5.689600 2.569152 -1.005930 -3.544778 2.911927 -0.548806 -3.585841 -0.806126 -4.949027 23.138962 -4.640400 -1.455800 14.499100 -88.597943 9.315465 25.180948 18.962568 -28.849955 -4.476505 0.058261 0.334776 -3.289909 -7.125000 0.000000 0.000000 86.909245 -2.315912 12.400187 -13.192008 22.121025 -2.609695 0.049728 -0.493870 0.789967 7.125000 0.000000 0.000000 
-0.032521 17.815097 -31.488116 -1.157031 1.829669 3.995550 -3.175228 -16.092388 -4.032479 -0.691222 6.915230 17.823121 2.236629 -5.307263 4.542966 0.200200 -2.881400 -7.948600 7.669901 21.700589 -2.258304 -0.351558 -8.458862 22.252188 -1.732496 4.509064 -1.083861 -0.100300 2.042500 -5.623100 2.525928 -1.286403 -3.542902 2.712938 -0.698628 -3.576757 -0.830878 -4.930186 23.165985 -4.649500 -1.448500 14.511800 -88.605337 9.371100 25.164874 18.950303 -28.833400 -4.470986 0.059455 0.334439 -3.269688 -7.125000 0.000000 0.000000 86.897878 -2.341744 12.386698 -13.185327 22.112878 -2.606519 0.048695 -0.492759 0.821040 7.125000 0.000000 0.000000 
-0.022346 17.817791 -31.487019 -1.148706 2.175507 4.080117 -3.176944 -16.455562 -4.073056 -0.688711 6.925085 17.866306 2.225714 -5.272098 4.538789 0.205200 -2.916800 -8.047300 7.574129 21.408150 -2.377676 -0.341530 -8.431166 22.171885 -1.724078 4.461597 -1.063604 -0.101000 2.049600 -5.642800 2.501185 -1.449000 -3.589439 2.600896 -0.783824 -3.566352 -0.833705 -4.951428 23.189690 -4.651900 -1.457200 14.522800 -88.595568 9.406539 25.184170 18.923556 -28.798300 -4.458635 0.060161 0.332801 -3.206240 -7.125000 0.000000 0.000000 86.897371 -2.357491 12.325543 -13.175147 22.099811 -2.602776 0.048172 -0.492121 0.836680 7.125000 0.000000 0.000000 
-0.012669 17.820484 -31.486021 -1.137313 2.497641 4.165849 -3.181577 -16.787953 -4.124991 -0.685019 6.937573 17.916636 2.218067 -5.250754 4.531179 0.209800 -2.948900 -8.136600 7.476752 21.133500 -2.495778 -0.332700 -8.404868 22.097365 -1.716701 4.419238 -1.043675 -0.102400 2.063600 -5.681500 2.415706 -1.628061 -3.624344 2.357392 -0.882096 -3.552854 -0.703946 -5.041973 23.208934 -4.591900 -1.485100 14.533600 -88.468623 9.411948 25.197724 18.886156 -28.745043 -4.440628 0.061390 0.330342 -3.181335 -7.125000 0.000000 0.000000 87.017602 -2.314777 12.268803 -13.150167 22.074086 -2.595019 0.047018 -0.491780 0.906835 7.125000 0.000000 0.000000 
-0.007482 17.821282 -31.484325 -1.129494 2.663974 4.195913 -3.193401 -16.945281 -4.137000 -0.682260 6.946666 17.948357 2.216360 -5.250997 4.509267 0.213700 -2.976000 -8.211900 7.431975 20.988395 -2.538239 -0.328836 -8.393980 22.064944 -1.714151 4.403151 -1.039632 -0.103800 2.078000 -5.721300 2.356051 -1.737222 -3.642169 2.197935 -0.942333 -3.547752 -0.615644 -5.103439 23.221971 -4.552000 -1.503300 14.540000 -88.372433 9.431183 25.212875 18.848560 -28.692906 -4.422673 0.062006 0.328353 -3.163684 -7.125000 0.000000 0.000000 87.107433 -2.293389 12.225711 -13.130107 22.052633 -2.588882 0.046367 -0.491709 0.970869 7.125000 0.000000 0.000000 
-0.007981 17.819387 -31.481332 -1.128305 2.628452 4.126407 -3.223844 -16.890937 -4.069472 -0.679169 6.958987 17.972743 2.219107 -5.265566 4.451802 0.216400 -2.994700 -8.264100 7.470718 21.011857 -2.438859 -0.328192 -8.397241 22.066786 -1.714907 4.406999 -1.053652 -0.105400 2.093400 -5.763800 2.312444 -1.759688 -3.623682 2.110151 -0.957119 -3.550652 -0.536919 -5.156352 23.232146 -4.517700 -1.518100 14.545700 -88.280711 9.445507 25.228730 18.802673 -28.630554 -4.400988 0.062122 0.326260 -3.146202 -7.125000 0.000000 0.000000 87.192498 -2.273764 12.188606 -13.110694 22.031185 -2.583370 0.046095 -0.492116 1.033581 7.125000 0.000000 0.000000 
-0.011871 17.815097 -31.476743 -1.127785 2.470976 3.963845 -3.280340 -16.709117 -3.910283 -0.677599 6.970469 17.981861 2.222969 -5.283885 4.370635 0.218300 -3.007500 -8.299800 7.575654 21.141671 -2.219374 -0.332276 -8.418095 22.111245 -1.717343 4.420867 -1.098773 -0.106000 2.099000 -5.779200 2.315937 -1.716680 -3.582435 2.153142 -0.934752 -3.563101 -0.551892 -5.149714 23.247106 -4.528000 -1.513600 14.553500 -88.266669 9.480512 25.250651 18.754562 -28.568611 -4.378907 0.061963 0.324445 -3.104425 -7.125000 0.000000 0.000000 87.198925 -2.297647 12.160411 -13.101080 22.017499 -2.580818 0.046491 -0.492715 1.067234 7.125000 0.000000 0.000000 
-0.015862 17.809610 -31.471556 -1.133009 2.307897 3.757177 -3.345229 -16.533420 -3.696636 -0.677070 6.981077 17.983812 2.224155 -5.291810 4.286564 0.219200 -3.014000 -8.317900 7.714741 21.287497 -1.945249 -0.338228 -8.446525 22.171605 -1.716919 4.422324 -1.164452 -0.105700 2.096800 -5.773300 2.353220 -1.659466 -3.532510 2.269055 -0.903266 -3.577716 -0.639463 -5.099349 23.268891 -4.572400 -1.495600 14.565400 -88.317353 9.528688 25.274256 18.710030 -28.513907 -4.358936 0.060750 0.323997 -3.054456 -7.125000 0.000000 0.000000 87.140970 -2.346109 12.128840 -13.094226 22.003610 -2.578721 0.047047 -0.493076 1.077733 7.125000 0.000000 0.000000 
-0.023344 17.802927 -31.466269 -1.147027 2.019224 3.534544 -3.396628 -16.208262 -3.489535 -0.674395 6.993198 17.985880 2.229856 -5.314841 4.173711 0.223500 -3.043000 -8.398600 7.891423 21.539801 -1.634634 -0.344922 -8.478095 22.242004 -1.718350 4.436078 -1.221731 -0.105500 2.094200 -5.766000 2.426372 -1.534062 -3.477062 2.481359 -0.834402 -3.593940 -0.773932 -5.024866 23.304709 -4.638600 -1.470500 14.584200 -88.415955 9.583372 25.306585 18.661864 -28.456551 -4.337680 0.059686 0.323383 -2.983104 -7.125000 0.000000 0.000000 87.033775 -2.419593 12.090251 -13.093104 21.993997 -2.577975 0.047666 -0.493033 1.062081 7.125000 0.000000 0.000000 
-0.021548 17.800233 -31.463476 -1.157036 2.056837 3.478613 -3.412379 -16.226752 -3.401437 -0.677176 6.988270 17.964497 2.224715 -5.293917 4.138816 0.232500 -3.103300 -8.566400 7.933854 21.532936 -1.584931 -0.355142 -8.504663 22.312062 -1.714820 4.418417 -1.282175 -0.105700 2.096100 -5.771300 2.475932 -1.546593 -3.481902 2.581651 -0.838060 -3.600377 -0.893836 -4.966991 23.348360 -4.697200 -1.451900 14.607400 -88.510171 9.634423 25.348571 18.611734 -28.396179 -4.315752 0.059012 0.322425 -2.909379 -7.125000 0.000000 0.000000 86.931742 -2.493645 12.044082 -13.093385 21.988005 -2.577607 0.048052 -0.492771 1.040950 7.125000 0.000000 0.000000 
